<svg width="18" height="18" viewBox="0 0 18 18" fill="none" xmlns="http://www.w3.org/2000/svg"><path fill="#F0F3FA" d="M0 0h18v18H0z"/><path fill-rule="evenodd" clip-rule="evenodd" d="M12.5 8.28c.05.35-.32-.75-1.35-.93-1-.21-2 .4-2.25 1.4A1.71 1.71 0 0 1 6.9 9.98a1.6 1.6 0 0 1-1.36-1.85 3.53 3.53 0 0 1 4.14-2.58 3.39 3.39 0 0 1 2.82 2.71z" fill="#EF5350"/><path fill-rule="evenodd" clip-rule="evenodd" d="M8.33 12.44A3.39 3.39 0 0 1 5.5 9.72c-.06-.35.3.75 1.34.93 1 .21 2-.4 2.25-1.4a1.71 1.71 0 0 1 2-1.24 1.6 1.6 0 0 1 1.38 1.79l-.01.06a3.53 3.53 0 0 1-4.14 2.58z" fill="#1565C0"/><path fill-rule="evenodd" clip-rule="evenodd" d="M3.92 14.5L2 11.21l.6-.3 1.92 3.28-.6.3zm1.19-.6l-1.93-3.27.6-.3 1.92 3.28-.6.3zm8.97.5L16 11.02l-.6-.3-1.91 3.38.59.3zm-1.19-.6l1.93-3.39-.6-.3-1.92 3.38.6.3zM3.9 3.5L2 6.72l.59.3 1.9-3.22-.59-.29zm1.17.58L3.17 7.3l.59.3 1.9-3.22-.59-.29zm8.86-.49l1.9 3.32-.58.3-1.9-3.32.58-.3zm-1.17.6l1.9 3.32-.59.3-1.9-3.32.6-.3z" fill="#2A2E39"/></svg>